<svg width="18" height="18" viewBox="0 0 18 18" fill="none" xmlns="http://www.w3.org/2000/svg">
<path d="M7.96125 13.9225C6.78223 13.9225 5.62968 13.5729 4.64936 12.9178C3.66904 12.2628 2.90497 11.3318 2.45378 10.2425C2.00258 9.15325 1.88453 7.95464 2.11455 6.79827C2.34456 5.6419 2.91232 4.57971 3.74601 3.74601C4.57971 2.91232 5.6419 2.34456 6.79827 2.11455C7.95464 1.88453 9.15325 2.00258 10.2425 2.45378C11.3318 2.90497 12.2628 3.66904 12.9178 4.64936C13.5729 5.62968 13.9225 6.78223 13.9225 7.96125C13.9225 8.74409 13.7683 9.51927 13.4687 10.2425C13.1691 10.9658 12.73 11.6229 12.1765 12.1765C11.6229 12.73 10.9658 13.1691 10.2425 13.4687C9.51927 13.7683 8.74409 13.9225 7.96125 13.9225ZM7.96125 3.19542C7.02179 3.19542 6.10343 3.474 5.32229 3.99594C4.54116 4.51788 3.93234 5.25972 3.57282 6.12767C3.21331 6.99562 3.11924 7.95069 3.30252 8.8721C3.4858 9.79351 3.9382 10.6399 4.6025 11.3042C5.26679 11.9685 6.11316 12.4209 7.03457 12.6041C7.95598 12.7874 8.91105 12.6934 9.779 12.3338C10.6469 11.9743 11.3888 11.3655 11.9107 10.5844C12.4327 9.80324 12.7113 8.88488 12.7113 7.94542C12.7113 6.68564 12.2108 5.47746 11.32 4.58666C10.4292 3.69586 9.22103 3.19542 7.96125 3.19542Z" fill="white" stroke="white" stroke-width="0.5"/>
<path d="M15.2683 15.8622C15.1903 15.8626 15.113 15.8473 15.041 15.8174C14.9689 15.7875 14.9036 15.7435 14.8487 15.688L11.5792 12.4184C11.4743 12.3059 11.4172 12.157 11.4199 12.0032C11.4226 11.8494 11.4849 11.7026 11.5937 11.5938C11.7025 11.485 11.8493 11.4227 12.0031 11.42C12.1569 11.4173 12.3058 11.4744 12.4183 11.5793L15.6879 14.8489C15.7991 14.9602 15.8615 15.1111 15.8615 15.2684C15.8615 15.4258 15.7991 15.5767 15.6879 15.688C15.6331 15.7435 15.5677 15.7875 15.4957 15.8174C15.4236 15.8473 15.3463 15.8626 15.2683 15.8622Z" fill="white" stroke="white" stroke-width="0.5"/>
</svg>
