<svg width="19" height="18" viewBox="0 0 19 18" fill="none" xmlns="http://www.w3.org/2000/svg">
<path d="M15.5415 2.33334C15.3917 2.18464 15.2039 2.0801 14.9986 2.03122C14.7932 1.98233 14.5784 1.991 14.3777 2.05625L2.79565 5.91959C2.58084 5.98765 2.39103 6.11784 2.25018 6.29372C2.10933 6.4696 2.02375 6.68328 2.00427 6.90776C1.98479 7.13225 2.03227 7.35747 2.14071 7.55499C2.24915 7.7525 2.4137 7.91345 2.61356 8.0175L7.41898 10.3925L9.79398 15.2138C9.88944 15.4025 10.0355 15.5609 10.2159 15.6714C10.3962 15.7818 10.6037 15.8399 10.8152 15.8392H10.8944C11.1209 15.8225 11.3371 15.7381 11.515 15.5969C11.6929 15.4557 11.8242 15.2643 11.8919 15.0475L15.8106 3.49709C15.8806 3.29753 15.8925 3.08221 15.8448 2.87618C15.7972 2.67015 15.692 2.4819 15.5415 2.33334ZM3.28648 7.01209L13.3961 3.63959L7.78315 9.2525L3.28648 7.01209ZM10.8706 14.5883L8.62231 10.0917L14.2352 4.47875L10.8706 14.5883Z" fill="white" stroke="white" stroke-width="0.5"/>
</svg>
