<svg width="40" height="40" viewBox="0 0 40 40" fill="none" xmlns="http://www.w3.org/2000/svg">
<rect width="40" height="40" fill="#0F172A" fill-opacity="0.8"/>
<path d="M25 10H15C12.2386 10 10 12.2386 10 15V25C10 27.7614 12.2386 30 15 30H25C27.7614 30 30 27.7614 30 25V15C30 12.2386 27.7614 10 25 10Z" stroke="#BDBDBD" stroke-width="2" stroke-linecap="round" stroke-linejoin="round"/>
<path d="M24 19.3703C24.1234 20.2025 23.9812 21.0525 23.5937 21.7993C23.2062 22.5461 22.5931 23.1517 21.8416 23.53C21.0901 23.9082 20.2384 24.0399 19.4077 23.9062C18.5771 23.7726 17.8097 23.3804 17.2148 22.7855C16.6199 22.1905 16.2277 21.4232 16.094 20.5925C15.9604 19.7619 16.092 18.9102 16.4703 18.1587C16.8485 17.4072 17.4541 16.794 18.2009 16.4065C18.9477 16.019 19.7977 15.8769 20.63 16.0003C21.4789 16.1262 22.2648 16.5218 22.8716 17.1286C23.4785 17.7355 23.8741 18.5214 24 19.3703Z" stroke="#BDBDBD" stroke-width="2" stroke-linecap="round" stroke-linejoin="round"/>
<path d="M25.5 14.5H25.51" stroke="#BDBDBD" stroke-width="2" stroke-linecap="round" stroke-linejoin="round"/>
</svg>
